<svg width="185" height="60" viewBox="0 0 185 60" fill="none" xmlns="http://www.w3.org/2000/svg">
<rect width="185" height="60" rx="10" fill="#101010"/>
<path d="M37.4173 42.8C35.7839 44.3833 34.0006 44.1333 32.2839 43.3833C30.4673 42.6167 28.8006 42.5833 26.8839 43.3833C24.4839 44.4167 23.2173 44.1167 21.7839 42.8C13.6506 34.4167 14.8506 21.65 24.0839 21.1833C26.3339 21.3 27.9006 22.4167 29.2173 22.5167C31.1839 22.1167 33.0673 20.9667 35.1673 21.1167C37.6839 21.3167 39.5839 22.3167 40.8339 24.1167C35.6339 27.2333 36.8673 34.0833 41.6339 36C40.6839 38.5 39.4506 40.9833 37.4006 42.8167L37.4173 42.8ZM29.0506 21.0833C28.8006 17.3667 31.8173 14.3 35.2839 14C35.7673 18.3 31.3839 21.5 29.0506 21.0833Z" fill="white"/>
<path d="M60.0533 22L63.8933 13.6H64.7693L68.6093 22H67.6733L64.1453 14.116H64.5053L60.9773 22H60.0533ZM61.5653 19.756L61.8293 19.036H66.7133L66.9773 19.756H61.5653ZM71.1225 22L68.3265 15.7H69.2145L71.7825 21.544H71.3625L73.9665 15.7H74.8065L71.9985 22H71.1225ZM79.7669 22V20.608L79.7309 20.38V18.052C79.7309 17.516 79.5789 17.104 79.2749 16.816C78.9789 16.528 78.5349 16.384 77.9429 16.384C77.5349 16.384 77.1469 16.452 76.7789 16.588C76.4109 16.724 76.0989 16.904 75.8429 17.128L75.4589 16.492C75.7789 16.22 76.1629 16.012 76.6109 15.868C77.0589 15.716 77.5309 15.64 78.0269 15.64C78.8429 15.64 79.4709 15.844 79.9109 16.252C80.3589 16.652 80.5829 17.264 80.5829 18.088V22H79.7669ZM77.5949 22.06C77.1229 22.06 76.7109 21.984 76.3589 21.832C76.0149 21.672 75.7509 21.456 75.5669 21.184C75.3829 20.904 75.2909 20.584 75.2909 20.224C75.2909 19.896 75.3669 19.6 75.5189 19.336C75.6789 19.064 75.9349 18.848 76.2869 18.688C76.6469 18.52 77.1269 18.436 77.7269 18.436H79.8989V19.072H77.7509C77.1429 19.072 76.7189 19.18 76.4789 19.396C76.2469 19.612 76.1309 19.88 76.1309 20.2C76.1309 20.56 76.2709 20.848 76.5509 21.064C76.8309 21.28 77.2229 21.388 77.7269 21.388C78.2069 21.388 78.6189 21.28 78.9629 21.064C79.3149 20.84 79.5709 20.52 79.7309 20.104L79.9229 20.692C79.7629 21.108 79.4829 21.44 79.0829 21.688C78.6909 21.936 78.1949 22.06 77.5949 22.06ZM82.897 22V15.7H83.749V22H82.897ZM83.329 14.308C83.153 14.308 83.005 14.248 82.885 14.128C82.765 14.008 82.705 13.864 82.705 13.696C82.705 13.528 82.765 13.388 82.885 13.276C83.005 13.156 83.153 13.096 83.329 13.096C83.505 13.096 83.653 13.152 83.773 13.264C83.893 13.376 83.953 13.516 83.953 13.684C83.953 13.86 83.893 14.008 83.773 14.128C83.661 14.248 83.513 14.308 83.329 14.308ZM86.1196 22V13.096H86.9716V22H86.1196ZM93.2903 22V20.608L93.2543 20.38V18.052C93.2543 17.516 93.1023 17.104 92.7983 16.816C92.5023 16.528 92.0583 16.384 91.4663 16.384C91.0583 16.384 90.6703 16.452 90.3023 16.588C89.9343 16.724 89.6223 16.904 89.3663 17.128L88.9823 16.492C89.3023 16.22 89.6863 16.012 90.1343 15.868C90.5823 15.716 91.0543 15.64 91.5503 15.64C92.3663 15.64 92.9943 15.844 93.4343 16.252C93.8823 16.652 94.1063 17.264 94.1063 18.088V22H93.2903ZM91.1183 22.06C90.6463 22.06 90.2343 21.984 89.8823 21.832C89.5383 21.672 89.2743 21.456 89.0903 21.184C88.9063 20.904 88.8143 20.584 88.8143 20.224C88.8143 19.896 88.8903 19.6 89.0423 19.336C89.2023 19.064 89.4583 18.848 89.8103 18.688C90.1703 18.52 90.6503 18.436 91.2503 18.436H93.4223V19.072H91.2743C90.6663 19.072 90.2423 19.18 90.0023 19.396C89.7703 19.612 89.6543 19.88 89.6543 20.2C89.6543 20.56 89.7943 20.848 90.0743 21.064C90.3543 21.28 90.7463 21.388 91.2503 21.388C91.7303 21.388 92.1423 21.28 92.4863 21.064C92.8383 20.84 93.0943 20.52 93.2543 20.104L93.4463 20.692C93.2863 21.108 93.0063 21.44 92.6063 21.688C92.2143 21.936 91.7183 22.06 91.1183 22.06ZM99.6724 22.06C99.1204 22.06 98.6244 21.936 98.1844 21.688C97.7444 21.432 97.3964 21.064 97.1404 20.584C96.8844 20.104 96.7564 19.524 96.7564 18.844C96.7564 18.156 96.8844 17.576 97.1404 17.104C97.4044 16.624 97.7564 16.26 98.1964 16.012C98.6364 15.764 99.1284 15.64 99.6724 15.64C100.272 15.64 100.808 15.776 101.28 16.048C101.76 16.312 102.136 16.684 102.408 17.164C102.68 17.644 102.816 18.204 102.816 18.844C102.816 19.476 102.68 20.036 102.408 20.524C102.136 21.004 101.76 21.38 101.28 21.652C100.808 21.924 100.272 22.06 99.6724 22.06ZM96.4204 22V13.096H97.2724V17.56L97.1524 18.832L97.2364 20.104V22H96.4204ZM99.6124 21.304C100.06 21.304 100.46 21.204 100.812 21.004C101.164 20.796 101.444 20.508 101.652 20.14C101.86 19.764 101.964 19.332 101.964 18.844C101.964 18.348 101.86 17.916 101.652 17.548C101.444 17.18 101.164 16.896 100.812 16.696C100.46 16.488 100.06 16.384 99.6124 16.384C99.1644 16.384 98.7604 16.488 98.4004 16.696C98.0484 16.896 97.7684 17.18 97.5604 17.548C97.3604 17.916 97.2604 18.348 97.2604 18.844C97.2604 19.332 97.3604 19.764 97.5604 20.14C97.7684 20.508 98.0484 20.796 98.4004 21.004C98.7604 21.204 99.1644 21.304 99.6124 21.304ZM104.553 22V13.096H105.405V22H104.553ZM110.452 22.06C109.796 22.06 109.22 21.924 108.724 21.652C108.228 21.372 107.84 20.992 107.56 20.512C107.28 20.024 107.14 19.468 107.14 18.844C107.14 18.22 107.272 17.668 107.536 17.188C107.808 16.708 108.176 16.332 108.64 16.06C109.112 15.78 109.64 15.64 110.224 15.64C110.816 15.64 111.34 15.776 111.796 16.048C112.26 16.312 112.624 16.688 112.888 17.176C113.152 17.656 113.284 18.212 113.284 18.844C113.284 18.884 113.28 18.928 113.272 18.976C113.272 19.016 113.272 19.06 113.272 19.108H107.788V18.472H112.816L112.48 18.724C112.48 18.268 112.38 17.864 112.18 17.512C111.988 17.152 111.724 16.872 111.388 16.672C111.052 16.472 110.664 16.372 110.224 16.372C109.792 16.372 109.404 16.472 109.06 16.672C108.716 16.872 108.448 17.152 108.256 17.512C108.064 17.872 107.968 18.284 107.968 18.748V18.88C107.968 19.36 108.072 19.784 108.28 20.152C108.496 20.512 108.792 20.796 109.168 21.004C109.552 21.204 109.988 21.304 110.476 21.304C110.86 21.304 111.216 21.236 111.544 21.1C111.88 20.964 112.168 20.756 112.408 20.476L112.888 21.028C112.608 21.364 112.256 21.62 111.832 21.796C111.416 21.972 110.956 22.06 110.452 22.06ZM120.727 22.06C120.119 22.06 119.571 21.924 119.083 21.652C118.603 21.372 118.223 20.992 117.943 20.512C117.663 20.024 117.523 19.468 117.523 18.844C117.523 18.212 117.663 17.656 117.943 17.176C118.223 16.696 118.603 16.32 119.083 16.048C119.563 15.776 120.111 15.64 120.727 15.64C121.351 15.64 121.903 15.776 122.383 16.048C122.871 16.32 123.251 16.696 123.523 17.176C123.803 17.656 123.943 18.212 123.943 18.844C123.943 19.468 123.803 20.024 123.523 20.512C123.251 20.992 122.871 21.372 122.383 21.652C121.895 21.924 121.343 22.06 120.727 22.06ZM120.727 21.304C121.183 21.304 121.587 21.204 121.939 21.004C122.291 20.796 122.567 20.508 122.767 20.14C122.975 19.764 123.079 19.332 123.079 18.844C123.079 18.348 122.975 17.916 122.767 17.548C122.567 17.18 122.291 16.896 121.939 16.696C121.587 16.488 121.187 16.384 120.739 16.384C120.291 16.384 119.891 16.488 119.539 16.696C119.187 16.896 118.907 17.18 118.699 17.548C118.491 17.916 118.387 18.348 118.387 18.844C118.387 19.332 118.491 19.764 118.699 20.14C118.907 20.508 119.187 20.796 119.539 21.004C119.891 21.204 120.287 21.304 120.727 21.304ZM128.898 15.64C129.41 15.64 129.858 15.74 130.242 15.94C130.634 16.132 130.938 16.428 131.154 16.828C131.378 17.228 131.49 17.732 131.49 18.34V22H130.638V18.424C130.638 17.76 130.47 17.26 130.134 16.924C129.806 16.58 129.342 16.408 128.742 16.408C128.294 16.408 127.902 16.5 127.566 16.684C127.238 16.86 126.982 17.12 126.798 17.464C126.622 17.8 126.534 18.208 126.534 18.688V22H125.682V15.7H126.498V17.428L126.366 17.104C126.566 16.648 126.886 16.292 127.326 16.036C127.766 15.772 128.29 15.64 128.898 15.64ZM138.924 22.06C138.332 22.06 137.876 21.9 137.556 21.58C137.236 21.26 137.076 20.808 137.076 20.224V14.308H137.928V20.176C137.928 20.544 138.02 20.828 138.204 21.028C138.396 21.228 138.668 21.328 139.02 21.328C139.396 21.328 139.708 21.22 139.956 21.004L140.256 21.616C140.088 21.768 139.884 21.88 139.644 21.952C139.412 22.024 139.172 22.06 138.924 22.06ZM135.948 16.408V15.7H139.848V16.408H135.948ZM145.023 15.64C145.535 15.64 145.983 15.74 146.367 15.94C146.759 16.132 147.063 16.428 147.279 16.828C147.503 17.228 147.615 17.732 147.615 18.34V22H146.763V18.424C146.763 17.76 146.595 17.26 146.259 16.924C145.931 16.58 145.467 16.408 144.867 16.408C144.419 16.408 144.027 16.5 143.691 16.684C143.363 16.86 143.107 17.12 142.923 17.464C142.747 17.8 142.659 18.208 142.659 18.688V22H141.807V13.096H142.659V17.428L142.491 17.104C142.691 16.648 143.011 16.292 143.451 16.036C143.891 15.772 144.415 15.64 145.023 15.64ZM152.593 22.06C151.937 22.06 151.361 21.924 150.865 21.652C150.369 21.372 149.981 20.992 149.701 20.512C149.421 20.024 149.281 19.468 149.281 18.844C149.281 18.22 149.413 17.668 149.677 17.188C149.949 16.708 150.317 16.332 150.781 16.06C151.253 15.78 151.781 15.64 152.365 15.64C152.957 15.64 153.481 15.776 153.937 16.048C154.401 16.312 154.765 16.688 155.029 17.176C155.293 17.656 155.425 18.212 155.425 18.844C155.425 18.884 155.421 18.928 155.413 18.976C155.413 19.016 155.413 19.06 155.413 19.108H149.929V18.472H154.957L154.621 18.724C154.621 18.268 154.521 17.864 154.321 17.512C154.129 17.152 153.865 16.872 153.529 16.672C153.193 16.472 152.805 16.372 152.365 16.372C151.933 16.372 151.545 16.472 151.201 16.672C150.857 16.872 150.589 17.152 150.397 17.512C150.205 17.872 150.109 18.284 150.109 18.748V18.88C150.109 19.36 150.213 19.784 150.421 20.152C150.637 20.512 150.933 20.796 151.309 21.004C151.693 21.204 152.129 21.304 152.617 21.304C153.001 21.304 153.357 21.236 153.685 21.1C154.021 20.964 154.309 20.756 154.549 20.476L155.029 21.028C154.749 21.364 154.397 21.62 153.973 21.796C153.557 21.972 153.097 22.06 152.593 22.06Z" fill="white"/>
<path d="M60.316 44L66.616 30H69.176L75.496 44H72.776L67.356 31.38H68.396L62.996 44H60.316ZM63.216 40.76L63.916 38.72H71.476L72.176 40.76H63.216ZM82.9565 44.14C82.0898 44.14 81.2965 43.94 80.5765 43.54C79.8698 43.14 79.3032 42.54 78.8765 41.74C78.4632 40.9267 78.2565 39.9 78.2565 38.66C78.2565 37.4067 78.4565 36.38 78.8565 35.58C79.2698 34.78 79.8298 34.1867 80.5365 33.8C81.2432 33.4 82.0498 33.2 82.9565 33.2C84.0098 33.2 84.9365 33.4267 85.7365 33.88C86.5498 34.3333 87.1898 34.9667 87.6565 35.78C88.1365 36.5933 88.3765 37.5533 88.3765 38.66C88.3765 39.7667 88.1365 40.7333 87.6565 41.56C87.1898 42.3733 86.5498 43.0067 85.7365 43.46C84.9365 43.9133 84.0098 44.14 82.9565 44.14ZM77.0365 47.88V33.32H79.4165V35.84L79.3365 38.68L79.5365 41.52V47.88H77.0365ZM82.6765 42C83.2765 42 83.8098 41.8667 84.2765 41.6C84.7565 41.3333 85.1365 40.9467 85.4165 40.44C85.6965 39.9333 85.8365 39.34 85.8365 38.66C85.8365 37.9667 85.6965 37.3733 85.4165 36.88C85.1365 36.3733 84.7565 35.9867 84.2765 35.72C83.8098 35.4533 83.2765 35.32 82.6765 35.32C82.0765 35.32 81.5365 35.4533 81.0565 35.72C80.5765 35.9867 80.1965 36.3733 79.9165 36.88C79.6365 37.3733 79.4965 37.9667 79.4965 38.66C79.4965 39.34 79.6365 39.9333 79.9165 40.44C80.1965 40.9467 80.5765 41.3333 81.0565 41.6C81.5365 41.8667 82.0765 42 82.6765 42ZM96.6674 44.14C95.8008 44.14 95.0074 43.94 94.2874 43.54C93.5808 43.14 93.0141 42.54 92.5874 41.74C92.1741 40.9267 91.9674 39.9 91.9674 38.66C91.9674 37.4067 92.1674 36.38 92.5674 35.58C92.9808 34.78 93.5408 34.1867 94.2474 33.8C94.9541 33.4 95.7608 33.2 96.6674 33.2C97.7208 33.2 98.6474 33.4267 99.4474 33.88C100.261 34.3333 100.901 34.9667 101.367 35.78C101.847 36.5933 102.087 37.5533 102.087 38.66C102.087 39.7667 101.847 40.7333 101.367 41.56C100.901 42.3733 100.261 43.0067 99.4474 43.46C98.6474 43.9133 97.7208 44.14 96.6674 44.14ZM90.7474 47.88V33.32H93.1274V35.84L93.0474 38.68L93.2474 41.52V47.88H90.7474ZM96.3874 42C96.9874 42 97.5208 41.8667 97.9874 41.6C98.4674 41.3333 98.8474 40.9467 99.1274 40.44C99.4074 39.9333 99.5474 39.34 99.5474 38.66C99.5474 37.9667 99.4074 37.3733 99.1274 36.88C98.8474 36.3733 98.4674 35.9867 97.9874 35.72C97.5208 35.4533 96.9874 35.32 96.3874 35.32C95.7874 35.32 95.2474 35.4533 94.7674 35.72C94.2874 35.9867 93.9074 36.3733 93.6274 36.88C93.3474 37.3733 93.2074 37.9667 93.2074 38.66C93.2074 39.34 93.3474 39.9333 93.6274 40.44C93.9074 40.9467 94.2874 41.3333 94.7674 41.6C95.2474 41.8667 95.7874 42 96.3874 42ZM114.566 44.2C113.472 44.2 112.426 44.0467 111.426 43.74C110.426 43.42 109.632 43.0133 109.046 42.52L109.946 40.5C110.506 40.94 111.199 41.3067 112.026 41.6C112.852 41.8933 113.699 42.04 114.566 42.04C115.299 42.04 115.892 41.96 116.346 41.8C116.799 41.64 117.132 41.4267 117.346 41.16C117.559 40.88 117.666 40.5667 117.666 40.22C117.666 39.7933 117.512 39.4533 117.206 39.2C116.899 38.9333 116.499 38.7267 116.006 38.58C115.526 38.42 114.986 38.2733 114.386 38.14C113.799 38.0067 113.206 37.8533 112.606 37.68C112.019 37.4933 111.479 37.26 110.986 36.98C110.506 36.6867 110.112 36.3 109.806 35.82C109.499 35.34 109.346 34.7267 109.346 33.98C109.346 33.22 109.546 32.5267 109.946 31.9C110.359 31.26 110.979 30.7533 111.806 30.38C112.646 29.9933 113.706 29.8 114.986 29.8C115.826 29.8 116.659 29.9067 117.486 30.12C118.312 30.3333 119.032 30.64 119.646 31.04L118.826 33.06C118.199 32.6867 117.552 32.4133 116.886 32.24C116.219 32.0533 115.579 31.96 114.966 31.96C114.246 31.96 113.659 32.0467 113.206 32.22C112.766 32.3933 112.439 32.62 112.226 32.9C112.026 33.18 111.926 33.5 111.926 33.86C111.926 34.2867 112.072 34.6333 112.366 34.9C112.672 35.1533 113.066 35.3533 113.546 35.5C114.039 35.6467 114.586 35.7933 115.186 35.94C115.786 36.0733 116.379 36.2267 116.966 36.4C117.566 36.5733 118.106 36.8 118.586 37.08C119.079 37.36 119.472 37.74 119.766 38.22C120.072 38.7 120.226 39.3067 120.226 40.04C120.226 40.7867 120.019 41.48 119.606 42.12C119.206 42.7467 118.586 43.2533 117.746 43.64C116.906 44.0133 115.846 44.2 114.566 44.2ZM126.584 44.14C125.41 44.14 124.504 43.84 123.864 43.24C123.224 42.6267 122.904 41.7267 122.904 40.54V30.96H125.404V40.48C125.404 40.9867 125.53 41.38 125.784 41.66C126.05 41.94 126.417 42.08 126.884 42.08C127.444 42.08 127.91 41.9333 128.284 41.64L128.984 43.42C128.69 43.66 128.33 43.84 127.904 43.96C127.477 44.08 127.037 44.14 126.584 44.14ZM121.144 35.4V33.4H128.264V35.4H121.144ZM135.489 44.14C134.395 44.14 133.422 43.9067 132.569 43.44C131.715 42.96 131.042 42.3067 130.549 41.48C130.055 40.6533 129.809 39.7133 129.809 38.66C129.809 37.5933 130.055 36.6533 130.549 35.84C131.042 35.0133 131.715 34.3667 132.569 33.9C133.422 33.4333 134.395 33.2 135.489 33.2C136.595 33.2 137.575 33.4333 138.429 33.9C139.295 34.3667 139.969 35.0067 140.449 35.82C140.942 36.6333 141.189 37.58 141.189 38.66C141.189 39.7133 140.942 40.6533 140.449 41.48C139.969 42.3067 139.295 42.96 138.429 43.44C137.575 43.9067 136.595 44.14 135.489 44.14ZM135.489 42C136.102 42 136.649 41.8667 137.129 41.6C137.609 41.3333 137.982 40.9467 138.249 40.44C138.529 39.9333 138.669 39.34 138.669 38.66C138.669 37.9667 138.529 37.3733 138.249 36.88C137.982 36.3733 137.609 35.9867 137.129 35.72C136.649 35.4533 136.109 35.32 135.509 35.32C134.895 35.32 134.349 35.4533 133.869 35.72C133.402 35.9867 133.029 36.3733 132.749 36.88C132.469 37.3733 132.329 37.9667 132.329 38.66C132.329 39.34 132.469 39.9333 132.749 40.44C133.029 40.9467 133.402 41.3333 133.869 41.6C134.349 41.8667 134.889 42 135.489 42ZM143.579 44V33.32H145.959V36.26L145.679 35.4C145.999 34.68 146.499 34.1333 147.179 33.76C147.873 33.3867 148.733 33.2 149.759 33.2V35.58C149.653 35.5533 149.553 35.54 149.459 35.54C149.366 35.5267 149.273 35.52 149.179 35.52C148.233 35.52 147.479 35.8 146.919 36.36C146.359 36.9067 146.079 37.7267 146.079 38.82V44H143.579ZM156.803 44.14C155.616 44.14 154.576 43.9067 153.683 43.44C152.803 42.96 152.116 42.3067 151.623 41.48C151.143 40.6533 150.903 39.7133 150.903 38.66C150.903 37.5933 151.136 36.6533 151.603 35.84C152.083 35.0133 152.736 34.3667 153.563 33.9C154.403 33.4333 155.356 33.2 156.423 33.2C157.463 33.2 158.389 33.4267 159.203 33.88C160.016 34.3333 160.656 34.9733 161.123 35.8C161.589 36.6267 161.823 37.6 161.823 38.72C161.823 38.8267 161.816 38.9467 161.803 39.08C161.803 39.2133 161.796 39.34 161.783 39.46H152.883V37.8H160.463L159.483 38.32C159.496 37.7067 159.369 37.1667 159.103 36.7C158.836 36.2333 158.469 35.8667 158.003 35.6C157.549 35.3333 157.023 35.2 156.423 35.2C155.809 35.2 155.269 35.3333 154.803 35.6C154.349 35.8667 153.989 36.24 153.723 36.72C153.469 37.1867 153.343 37.74 153.343 38.38V38.78C153.343 39.42 153.489 39.9867 153.783 40.48C154.076 40.9733 154.489 41.3533 155.023 41.62C155.556 41.8867 156.169 42.02 156.863 42.02C157.463 42.02 158.003 41.9267 158.483 41.74C158.963 41.5533 159.389 41.26 159.763 40.86L161.103 42.4C160.623 42.96 160.016 43.3933 159.283 43.7C158.563 43.9933 157.736 44.14 156.803 44.14Z" fill="white"/>
</svg>
