<svg xmlns="http://www.w3.org/2000/svg" width="30" height="37" viewBox="0 0 30 37" fill="none">
  <path d="M18.9062 31.9364L8.375 19.2224C8.25 19.071 8.16167 18.907 8.11 18.7305C8.0575 18.5539 8.03125 18.3647 8.03125 18.1629C8.03125 17.9611 8.0575 17.7719 8.11 17.5953C8.16167 17.4187 8.25 17.2547 8.375 17.1034L18.9062 4.35153C19.1979 3.99836 19.5625 3.82178 20 3.82178C20.4375 3.82178 20.8125 4.01097 21.125 4.38937C21.4375 4.76776 21.5937 5.20922 21.5937 5.71374C21.5937 6.21827 21.4375 6.65972 21.125 7.03812L11.9375 18.1629L21.125 29.2876C21.4167 29.6408 21.5625 30.0757 21.5625 30.5923C21.5625 31.11 21.4062 31.558 21.0938 31.9364C20.7812 32.3148 20.4167 32.504 20 32.504C19.5833 32.504 19.2188 32.3148 18.9062 31.9364Z" fill="black"/>
</svg>
