<svg xmlns="http://www.w3.org/2000/svg" width="70" height="70" viewBox="0 0 70 70" fill="none">
  <path d="M38.7003 10.7006C39.5755 9.8257 40.7622 9.33423 41.9997 9.33423C43.2371 9.33423 44.4239 9.8257 45.299 10.7006L66.299 31.7006C67.1739 32.5757 67.6653 33.7625 67.6653 34.9999C67.6653 36.2373 67.1739 37.4241 66.299 38.2992L45.299 59.2992C44.4189 60.1493 43.2401 60.6197 42.0165 60.609C40.7929 60.5984 39.6224 60.1076 38.7572 59.2424C37.8919 58.3771 37.4012 57.2067 37.3905 55.9831C37.3799 54.7595 37.8503 53.5807 38.7003 52.7006L51.333 39.6666H6.99967C5.762 39.6666 4.57501 39.1749 3.69984 38.2997C2.82467 37.4246 2.33301 36.2376 2.33301 34.9999C2.33301 33.7622 2.82467 32.5752 3.69984 31.7001C4.57501 30.8249 5.762 30.3332 6.99967 30.3332H51.333L38.7003 17.2992C37.8255 16.4241 37.334 15.2373 37.334 13.9999C37.334 12.7625 37.8255 11.5757 38.7003 10.7006Z" fill="white"/>
</svg>
