<svg xmlns="http://www.w3.org/2000/svg" width="41" height="41" viewBox="0 0 41 41" fill="none">
  <path d="M22.6671 6.26757C23.1797 5.75515 23.8748 5.46729 24.5995 5.46729C25.3243 5.46729 26.0194 5.75515 26.532 6.26757L38.832 18.5676C39.3444 19.0801 39.6323 19.7753 39.6323 20.5C39.6323 21.2248 39.3444 21.9199 38.832 22.4325L26.532 34.7325C26.0165 35.2304 25.3261 35.5059 24.6094 35.4997C23.8927 35.4934 23.2072 35.206 22.7004 34.6992C22.1936 34.1924 21.9061 33.5069 21.8999 32.7902C21.8937 32.0735 22.1692 31.3831 22.6671 30.8676L30.0662 23.2334H4.09954C3.37462 23.2334 2.67939 22.9454 2.16679 22.4328C1.65419 21.9202 1.36621 21.225 1.36621 20.5C1.36621 19.7751 1.65419 19.0799 2.16679 18.5673C2.67939 18.0547 3.37462 17.7667 4.09954 17.7667H30.0662L22.6671 10.1325C22.1547 9.61993 21.8668 8.92482 21.8668 8.20003C21.8668 7.47525 22.1547 6.78014 22.6671 6.26757Z" fill="white"/>
</svg>
