<svg xmlns="http://www.w3.org/2000/svg" width="16" height="16" viewBox="0 0 16 16" fill="none">
  <g clip-path="url(#clip0_1817_5093)">
    <path fill-rule="evenodd" clip-rule="evenodd" d="M4.76565 4.11437C4.76565 3.94156 4.83429 3.77583 4.95648 3.65364C5.07868 3.53145 5.24441 3.4628 5.41721 3.4628H6.06878V4.11437C6.06878 4.28717 6.13743 4.4529 6.25962 4.57509C6.38181 4.69729 6.54754 4.76593 6.72034 4.76593C6.89315 4.76593 7.05888 4.69729 7.18107 4.57509C7.30326 4.4529 7.37191 4.28717 7.37191 4.11437V3.4628C7.37191 3.11719 7.23462 2.78573 6.99023 2.54135C6.74585 2.29696 6.41439 2.15967 6.06878 2.15967H5.41721C4.89879 2.15967 4.40161 2.36561 4.03503 2.73219C3.66845 3.09876 3.46251 3.59595 3.46251 4.11437V7.3722H2.81095C2.46533 7.3722 2.13388 7.50949 1.88949 7.75388C1.64511 7.99826 1.50781 8.32972 1.50781 8.67533V9.3269C1.50745 9.96436 1.66314 10.5922 1.96127 11.1557C2.25941 11.7191 2.69093 12.201 3.21818 12.5593L3.00186 12.7756C2.93962 12.8357 2.88999 12.9076 2.85584 12.9871C2.82169 13.0666 2.80372 13.1521 2.80296 13.2386C2.80221 13.3252 2.8187 13.411 2.85146 13.491C2.88422 13.5711 2.9326 13.6439 2.99378 13.705C3.05496 13.7662 3.1277 13.8146 3.20778 13.8474C3.28786 13.8801 3.37365 13.8966 3.46017 13.8958C3.54668 13.8951 3.63218 13.8771 3.71167 13.843C3.79117 13.8088 3.86306 13.7592 3.92317 13.697L4.49394 13.1268C4.78975 13.1985 5.09925 13.2363 5.41721 13.2363H10.6297C10.9477 13.2363 11.2572 13.1985 11.553 13.1268L12.1238 13.697C12.2467 13.8156 12.4113 13.8813 12.5821 13.8798C12.7529 13.8783 12.9164 13.8098 13.0372 13.689C13.158 13.5682 13.2265 13.4048 13.228 13.234C13.2295 13.0631 13.1638 12.8985 13.0451 12.7756L12.8288 12.5593C13.356 12.201 13.7875 11.7191 14.0857 11.1557C14.3838 10.5922 14.5395 9.96436 14.5391 9.3269V8.67533C14.5391 8.32972 14.4018 7.99826 14.1575 7.75388C13.9131 7.50949 13.5816 7.3722 13.236 7.3722H4.76565V4.11437ZM2.81095 8.67533H13.236V9.3269C13.236 10.0181 12.9614 10.681 12.4727 11.1698C11.9839 11.6586 11.321 11.9332 10.6297 11.9332H5.41721C4.72599 11.9332 4.06307 11.6586 3.5743 11.1698C3.08553 10.681 2.81095 10.0181 2.81095 9.3269V8.67533Z" fill="#808080"/>
  </g>
  <defs>
    <clipPath id="clip0_1817_5093">
      <rect width="15.6376" height="15.6376" fill="white" transform="translate(0.205078 0.204956)"/>
    </clipPath>
  </defs>
</svg>
