<svg xmlns="http://www.w3.org/2000/svg" width="17" height="16" viewBox="0 0 17 16" fill="none">
  <path d="M2.1582 12.5848V8.67542C2.1582 8.38222 2.21793 8.11616 2.33738 7.87725C2.45684 7.63835 2.6143 7.42659 2.80977 7.24198V5.41759C2.80977 4.87462 2.99981 4.41309 3.37989 4.03301C3.75997 3.65293 4.2215 3.46289 4.76447 3.46289H7.37073C7.6205 3.46289 7.85398 3.50915 8.07117 3.60167C8.28836 3.6942 8.48926 3.82169 8.67387 3.98414C8.85848 3.82125 9.05938 3.69376 9.27657 3.60167C9.49375 3.50959 9.72723 3.46333 9.977 3.46289H12.5833C13.1262 3.46289 13.5878 3.65293 13.9678 4.03301C14.3479 4.41309 14.538 4.87462 14.538 5.41759V7.24198C14.7334 7.42659 14.8909 7.63835 15.0104 7.87725C15.1298 8.11616 15.1895 8.38222 15.1895 8.67542V12.5848H13.8864V11.2817H3.46134V12.5848H2.1582ZM9.32543 6.72072H13.2348V5.41759C13.2348 5.23298 13.1723 5.07812 13.0472 4.95302C12.9221 4.82792 12.7674 4.76559 12.5833 4.76602H9.977C9.79239 4.76602 9.63753 4.82857 9.51243 4.95367C9.38733 5.07878 9.325 5.23341 9.32543 5.41759V6.72072ZM4.1129 6.72072H8.0223V5.41759C8.0223 5.23298 7.95975 5.07812 7.83465 4.95302C7.70955 4.82792 7.55491 4.76559 7.37073 4.76602H4.76447C4.57986 4.76602 4.425 4.82857 4.2999 4.95367C4.1748 5.07878 4.11247 5.23341 4.1129 5.41759V6.72072ZM3.46134 9.97856H13.8864V8.67542C13.8864 8.49081 13.8238 8.33596 13.6987 8.21086C13.5736 8.08575 13.419 8.02342 13.2348 8.02386H4.1129C3.92829 8.02386 3.77344 8.08641 3.64834 8.21151C3.52323 8.33661 3.4609 8.49125 3.46134 8.67542V9.97856Z" fill="#808080"/>
</svg>
