<svg width="70" height="70" viewBox="0 0 70 70" fill="none" xmlns="http://www.w3.org/2000/svg">
<circle cx="35" cy="35" r="35" fill="#008000" fill-opacity="0.2"/>
<path d="M42.0003 48.2H28.0003C25.7253 48.2 23.6503 46.45 23.2753 44.2L21.6128 34.25C21.3503 32.7 22.1003 30.7125 23.3378 29.725L32.0003 22.7875C33.6753 21.4375 36.3128 21.45 38.0003 22.8L46.6628 29.725C47.8878 30.7125 48.6378 32.7 48.3878 34.25L46.7253 44.2C46.3503 46.4125 44.2378 48.2 42.0003 48.2ZM34.9878 23.675C34.3253 23.675 33.6628 23.875 33.1753 24.2625L24.5128 31.2C23.8003 31.775 23.3128 33.05 23.4628 33.95L25.1253 43.9C25.3503 45.2125 26.6628 46.325 28.0003 46.325H42.0003C43.3378 46.325 44.6503 45.2125 44.8753 43.8875L46.5378 33.9375C46.6878 33.0375 46.1878 31.75 45.4878 31.1875L36.8253 24.2625C36.3253 23.875 35.6628 23.675 34.9878 23.675Z" fill="#008000"/>
<path d="M35 40.3125C32.7625 40.3125 30.9375 38.4875 30.9375 36.25C30.9375 34.0125 32.7625 32.1875 35 32.1875C37.2375 32.1875 39.0625 34.0125 39.0625 36.25C39.0625 38.4875 37.2375 40.3125 35 40.3125ZM35 34.0625C33.8 34.0625 32.8125 35.05 32.8125 36.25C32.8125 37.45 33.8 38.4375 35 38.4375C36.2 38.4375 37.1875 37.45 37.1875 36.25C37.1875 35.05 36.2 34.0625 35 34.0625Z" fill="#008000"/>
</svg>
