<svg xmlns="http://www.w3.org/2000/svg" width="17" height="16" viewBox="0 0 17 16" fill="none">
  <path d="M13.4415 6.35583L12.2426 3.098C12.167 2.87388 12.0234 2.67885 11.832 2.53993C11.6405 2.40101 11.4106 2.32507 11.1741 2.32263H5.5706C5.33721 2.32316 5.1096 2.39529 4.91851 2.52928C4.72742 2.66328 4.58205 2.85269 4.50203 3.07193L3.30315 6.32976C3.11077 6.42184 2.94787 6.56574 2.83277 6.7453C2.71767 6.92485 2.65492 7.13295 2.65158 7.34621V10.2783C2.64784 10.4689 2.6925 10.6573 2.78138 10.8259C2.87026 10.9946 3.00046 11.1379 3.15981 11.2426V11.2817V12.5848C3.15981 12.7576 3.22845 12.9233 3.35065 13.0455C3.47284 13.1677 3.63857 13.2364 3.81137 13.2364H4.46294C4.63575 13.2364 4.80147 13.1677 4.92367 13.0455C5.04586 12.9233 5.11451 12.7576 5.11451 12.5848V11.4446H11.6302V12.5848C11.6302 12.7576 11.6988 12.9233 11.821 13.0455C11.9432 13.1677 12.1089 13.2364 12.2817 13.2364H12.9333C13.1061 13.2364 13.2718 13.1677 13.394 13.0455C13.5162 12.9233 13.5849 12.7576 13.5849 12.5848V11.2426C13.7381 11.1388 13.8634 10.999 13.9497 10.8353C14.0361 10.6717 14.0809 10.4893 14.0801 10.3043V7.37227C14.0779 7.16039 14.0171 6.95325 13.9044 6.77383C13.7917 6.59441 13.6315 6.44972 13.4415 6.35583ZM13.0962 10.3043C13.0962 10.3475 13.079 10.389 13.0485 10.4195C13.0179 10.4501 12.9765 10.4672 12.9333 10.4672H3.81137C3.76817 10.4672 3.72674 10.4501 3.69619 10.4195C3.66564 10.389 3.64848 10.3475 3.64848 10.3043V7.37227C3.64848 7.32907 3.66564 7.28764 3.69619 7.25709C3.72674 7.22654 3.76817 7.20938 3.81137 7.20938H12.9333C12.9765 7.20938 13.0179 7.22654 13.0485 7.25709C13.079 7.28764 13.0962 7.32907 13.0962 7.37227V10.3043ZM5.42074 3.40423C5.43245 3.37388 5.45299 3.34772 5.4797 3.32914C5.50641 3.31056 5.53807 3.3004 5.5706 3.29998H11.1741C11.2066 3.3004 11.2383 3.31056 11.265 3.32914C11.2917 3.34772 11.3122 3.37388 11.3239 3.40423L12.2361 5.90625H4.50855L5.42074 3.40423Z" fill="#808080"/>
  <path d="M5.76739 9.81566C6.30716 9.81566 6.74474 9.37809 6.74474 8.83831C6.74474 8.29854 6.30716 7.86096 5.76739 7.86096C5.22761 7.86096 4.79004 8.29854 4.79004 8.83831C4.79004 9.37809 5.22761 9.81566 5.76739 9.81566Z" fill="#808080"/>
  <path d="M10.9783 9.81566C11.5181 9.81566 11.9557 9.37809 11.9557 8.83831C11.9557 8.29854 11.5181 7.86096 10.9783 7.86096C10.4386 7.86096 10.001 8.29854 10.001 8.83831C10.001 9.37809 10.4386 9.81566 10.9783 9.81566Z" fill="#808080"/>
</svg>
