<svg xmlns="http://www.w3.org/2000/svg" width="40" height="41" viewBox="0 0 40 41" fill="none">
  <g clip-path="url(#clip0_1977_1112)">
    <path fill-rule="evenodd" clip-rule="evenodd" d="M32.4907 5.76191C32.8598 5.5396 33.3007 5.46888 33.7208 5.56459C34.1409 5.6603 34.5076 5.91499 34.744 6.27524L36.394 8.79191C36.6096 9.12083 36.7019 9.51537 36.6546 9.90577C36.6073 10.2962 36.4235 10.6573 36.1357 10.9252L36.1307 10.9319L36.1074 10.9536L36.0124 11.0419L35.6374 11.4002C33.5624 13.4129 31.5503 15.4895 29.604 17.6269C25.9424 21.6536 21.594 26.9236 18.6674 32.0369C17.8507 33.4636 15.8557 33.7702 14.6724 32.5386L3.86404 21.3086C3.70915 21.1476 3.58821 20.9571 3.5084 20.7484C3.4286 20.5397 3.39156 20.3172 3.39949 20.0939C3.40742 19.8706 3.46015 19.6512 3.55456 19.4488C3.64897 19.2463 3.78312 19.0648 3.94904 18.9152L7.21571 15.9686C7.50278 15.7098 7.87088 15.5588 8.257 15.5414C8.64313 15.5241 9.02327 15.6415 9.33238 15.8736L14.8474 20.0086C23.4607 11.5136 28.3474 8.25357 32.4907 5.76191Z" fill="#008000"/>
  </g>
  <defs>
    <clipPath id="clip0_1977_1112">
      <rect width="40" height="40" fill="white" transform="translate(0 0.540283)"/>
    </clipPath>
  </defs>
</svg>
