<svg width="185" height="60" viewBox="0 0 185 60" fill="none" xmlns="http://www.w3.org/2000/svg">
<rect width="185" height="60" rx="10" fill="#101010"/>
<path d="M55.1418 22.072C54.5018 22.072 53.9098 21.968 53.3658 21.76C52.8298 21.544 52.3618 21.244 51.9618 20.86C51.5698 20.476 51.2618 20.024 51.0378 19.504C50.8218 18.984 50.7138 18.416 50.7138 17.8C50.7138 17.184 50.8218 16.616 51.0378 16.096C51.2618 15.576 51.5738 15.124 51.9738 14.74C52.3738 14.356 52.8418 14.06 53.3778 13.852C53.9218 13.636 54.5138 13.528 55.1538 13.528C55.7938 13.528 56.3778 13.628 56.9058 13.828C57.4418 14.028 57.8978 14.332 58.2738 14.74L57.7218 15.304C57.3698 14.952 56.9818 14.7 56.5578 14.548C56.1338 14.396 55.6778 14.32 55.1898 14.32C54.6698 14.32 54.1898 14.408 53.7498 14.584C53.3178 14.752 52.9378 14.996 52.6098 15.316C52.2898 15.628 52.0378 15.996 51.8538 16.42C51.6778 16.836 51.5898 17.296 51.5898 17.8C51.5898 18.296 51.6778 18.756 51.8538 19.18C52.0378 19.604 52.2898 19.976 52.6098 20.296C52.9378 20.608 53.3178 20.852 53.7498 21.028C54.1898 21.196 54.6658 21.28 55.1778 21.28C55.6578 21.28 56.1098 21.208 56.5338 21.064C56.9658 20.92 57.3618 20.676 57.7218 20.332L58.2258 21.004C57.8258 21.356 57.3578 21.624 56.8218 21.808C56.2858 21.984 55.7258 22.072 55.1418 22.072ZM57.3738 20.896V17.8H58.2258V21.004L57.3738 20.896ZM61.5311 17.356H65.9711V18.112H61.5311V17.356ZM61.6271 21.232H66.6791V22H60.7391V13.6H66.4991V14.368H61.6271V21.232ZM70.3984 22V14.368H67.4464V13.6H74.2384V14.368H71.2864V22H70.3984ZM78.7977 22V13.6H79.6857V22H78.7977ZM84.0508 22V14.368H81.0988V13.6H87.8908V14.368H84.9388V22H84.0508ZM96.122 22.072C95.49 22.072 94.902 21.968 94.358 21.76C93.822 21.544 93.354 21.244 92.954 20.86C92.562 20.468 92.254 20.016 92.03 19.504C91.814 18.984 91.706 18.416 91.706 17.8C91.706 17.184 91.814 16.62 92.03 16.108C92.254 15.588 92.562 15.136 92.954 14.752C93.354 14.36 93.822 14.06 94.358 13.852C94.894 13.636 95.482 13.528 96.122 13.528C96.754 13.528 97.338 13.636 97.874 13.852C98.41 14.06 98.874 14.356 99.266 14.74C99.666 15.124 99.974 15.576 100.19 16.096C100.414 16.616 100.526 17.184 100.526 17.8C100.526 18.416 100.414 18.984 100.19 19.504C99.974 20.024 99.666 20.476 99.266 20.86C98.874 21.244 98.41 21.544 97.874 21.76C97.338 21.968 96.754 22.072 96.122 22.072ZM96.122 21.28C96.626 21.28 97.09 21.196 97.514 21.028C97.946 20.852 98.318 20.608 98.63 20.296C98.95 19.976 99.198 19.608 99.374 19.192C99.55 18.768 99.638 18.304 99.638 17.8C99.638 17.296 99.55 16.836 99.374 16.42C99.198 15.996 98.95 15.628 98.63 15.316C98.318 14.996 97.946 14.752 97.514 14.584C97.09 14.408 96.626 14.32 96.122 14.32C95.618 14.32 95.15 14.408 94.718 14.584C94.286 14.752 93.91 14.996 93.59 15.316C93.278 15.628 93.03 15.996 92.846 16.42C92.67 16.836 92.582 17.296 92.582 17.8C92.582 18.296 92.67 18.756 92.846 19.18C93.03 19.604 93.278 19.976 93.59 20.296C93.91 20.608 94.286 20.852 94.718 21.028C95.15 21.196 95.618 21.28 96.122 21.28ZM102.516 22V13.6H103.248L109.044 20.896H108.66V13.6H109.536V22H108.804L103.02 14.704H103.404V22H102.516Z" fill="white"/>
<path d="M58.5821 44.2C57.4888 44.2 56.4821 44.0267 55.5621 43.68C54.6554 43.32 53.8621 42.82 53.1821 42.18C52.5021 41.5267 51.9754 40.76 51.6021 39.88C51.2288 39 51.0421 38.04 51.0421 37C51.0421 35.96 51.2288 35 51.6021 34.12C51.9754 33.24 52.5021 32.48 53.1821 31.84C53.8754 31.1867 54.6821 30.6867 55.6021 30.34C56.5221 29.98 57.5288 29.8 58.6221 29.8C59.8088 29.8 60.8754 29.9933 61.8221 30.38C62.7821 30.7667 63.5888 31.3333 64.2421 32.08L62.6021 33.68C62.0554 33.1333 61.4621 32.7333 60.8221 32.48C60.1954 32.2133 59.5021 32.08 58.7421 32.08C58.0088 32.08 57.3288 32.2 56.7021 32.44C56.0754 32.68 55.5354 33.02 55.0821 33.46C54.6288 33.9 54.2754 34.42 54.0221 35.02C53.7821 35.62 53.6621 36.28 53.6621 37C53.6621 37.7067 53.7821 38.36 54.0221 38.96C54.2754 39.56 54.6288 40.0867 55.0821 40.54C55.5354 40.98 56.0688 41.32 56.6821 41.56C57.2954 41.8 57.9754 41.92 58.7221 41.92C59.4154 41.92 60.0821 41.8133 60.7221 41.6C61.3754 41.3733 61.9954 41 62.5821 40.48L64.0621 42.42C63.3288 43.0067 62.4754 43.4533 61.5021 43.76C60.5421 44.0533 59.5688 44.2 58.5821 44.2ZM61.6021 42.08V36.84H64.0621V42.42L61.6021 42.08ZM72.0513 44.14C70.958 44.14 69.9847 43.9067 69.1313 43.44C68.278 42.96 67.6047 42.3067 67.1113 41.48C66.618 40.6533 66.3713 39.7133 66.3713 38.66C66.3713 37.5933 66.618 36.6533 67.1113 35.84C67.6047 35.0133 68.278 34.3667 69.1313 33.9C69.9847 33.4333 70.958 33.2 72.0513 33.2C73.158 33.2 74.138 33.4333 74.9913 33.9C75.858 34.3667 76.5313 35.0067 77.0113 35.82C77.5047 36.6333 77.7513 37.58 77.7513 38.66C77.7513 39.7133 77.5047 40.6533 77.0113 41.48C76.5313 42.3067 75.858 42.96 74.9913 43.44C74.138 43.9067 73.158 44.14 72.0513 44.14ZM72.0513 42C72.6647 42 73.2113 41.8667 73.6913 41.6C74.1713 41.3333 74.5447 40.9467 74.8113 40.44C75.0913 39.9333 75.2313 39.34 75.2313 38.66C75.2313 37.9667 75.0913 37.3733 74.8113 36.88C74.5447 36.3733 74.1713 35.9867 73.6913 35.72C73.2113 35.4533 72.6713 35.32 72.0713 35.32C71.458 35.32 70.9113 35.4533 70.4313 35.72C69.9647 35.9867 69.5913 36.3733 69.3113 36.88C69.0313 37.3733 68.8913 37.9667 68.8913 38.66C68.8913 39.34 69.0313 39.9333 69.3113 40.44C69.5913 40.9467 69.9647 41.3333 70.4313 41.6C70.9113 41.8667 71.4513 42 72.0513 42ZM84.942 44.14C83.8486 44.14 82.8753 43.9067 82.022 43.44C81.1686 42.96 80.4953 42.3067 80.002 41.48C79.5086 40.6533 79.262 39.7133 79.262 38.66C79.262 37.5933 79.5086 36.6533 80.002 35.84C80.4953 35.0133 81.1686 34.3667 82.022 33.9C82.8753 33.4333 83.8486 33.2 84.942 33.2C86.0486 33.2 87.0286 33.4333 87.882 33.9C88.7486 34.3667 89.422 35.0067 89.902 35.82C90.3953 36.6333 90.642 37.58 90.642 38.66C90.642 39.7133 90.3953 40.6533 89.902 41.48C89.422 42.3067 88.7486 42.96 87.882 43.44C87.0286 43.9067 86.0486 44.14 84.942 44.14ZM84.942 42C85.5553 42 86.102 41.8667 86.582 41.6C87.062 41.3333 87.4353 40.9467 87.702 40.44C87.982 39.9333 88.122 39.34 88.122 38.66C88.122 37.9667 87.982 37.3733 87.702 36.88C87.4353 36.3733 87.062 35.9867 86.582 35.72C86.102 35.4533 85.562 35.32 84.962 35.32C84.3486 35.32 83.802 35.4533 83.322 35.72C82.8553 35.9867 82.482 36.3733 82.202 36.88C81.922 37.3733 81.782 37.9667 81.782 38.66C81.782 39.34 81.922 39.9333 82.202 40.44C82.482 40.9467 82.8553 41.3333 83.322 41.6C83.802 41.8667 84.342 42 84.942 42ZM97.8726 48.02C96.8859 48.02 95.9192 47.8867 94.9726 47.62C94.0392 47.3667 93.2726 46.9933 92.6726 46.5L93.7926 44.62C94.2592 45.0067 94.8459 45.3133 95.5526 45.54C96.2726 45.78 96.9992 45.9 97.7326 45.9C98.9059 45.9 99.7659 45.6267 100.313 45.08C100.859 44.5467 101.133 43.74 101.133 42.66V40.76L101.333 38.34L101.253 35.92V33.32H103.633V42.38C103.633 44.3133 103.139 45.7333 102.153 46.64C101.166 47.56 99.7392 48.02 97.8726 48.02ZM97.5526 43.52C96.5392 43.52 95.6192 43.3067 94.7926 42.88C93.9792 42.44 93.3326 41.8333 92.8526 41.06C92.3859 40.2867 92.1526 39.38 92.1526 38.34C92.1526 37.3133 92.3859 36.4133 92.8526 35.64C93.3326 34.8667 93.9792 34.2667 94.7926 33.84C95.6192 33.4133 96.5392 33.2 97.5526 33.2C98.4592 33.2 99.2726 33.38 99.9926 33.74C100.713 34.1 101.286 34.66 101.713 35.42C102.153 36.18 102.373 37.1533 102.373 38.34C102.373 39.5267 102.153 40.5067 101.713 41.28C101.286 42.04 100.713 42.6067 99.9926 42.98C99.2726 43.34 98.4592 43.52 97.5526 43.52ZM97.9326 41.4C98.5592 41.4 99.1192 41.2733 99.6126 41.02C100.106 40.7533 100.486 40.3933 100.753 39.94C101.033 39.4733 101.173 38.94 101.173 38.34C101.173 37.74 101.033 37.2133 100.753 36.76C100.486 36.2933 100.106 35.94 99.6126 35.7C99.1192 35.4467 98.5592 35.32 97.9326 35.32C97.3059 35.32 96.7392 35.4467 96.2326 35.7C95.7392 35.94 95.3526 36.2933 95.0726 36.76C94.8059 37.2133 94.6726 37.74 94.6726 38.34C94.6726 38.94 94.8059 39.4733 95.0726 39.94C95.3526 40.3933 95.7392 40.7533 96.2326 41.02C96.7392 41.2733 97.3059 41.4 97.9326 41.4ZM106.919 44V29.16H109.419V44H106.919ZM117.721 44.14C116.534 44.14 115.494 43.9067 114.601 43.44C113.721 42.96 113.034 42.3067 112.541 41.48C112.061 40.6533 111.821 39.7133 111.821 38.66C111.821 37.5933 112.054 36.6533 112.521 35.84C113.001 35.0133 113.654 34.3667 114.481 33.9C115.321 33.4333 116.274 33.2 117.341 33.2C118.381 33.2 119.307 33.4267 120.121 33.88C120.934 34.3333 121.574 34.9733 122.041 35.8C122.507 36.6267 122.741 37.6 122.741 38.72C122.741 38.8267 122.734 38.9467 122.721 39.08C122.721 39.2133 122.714 39.34 122.701 39.46H113.801V37.8H121.381L120.401 38.32C120.414 37.7067 120.287 37.1667 120.021 36.7C119.754 36.2333 119.387 35.8667 118.921 35.6C118.467 35.3333 117.941 35.2 117.341 35.2C116.727 35.2 116.187 35.3333 115.721 35.6C115.267 35.8667 114.907 36.24 114.641 36.72C114.387 37.1867 114.261 37.74 114.261 38.38V38.78C114.261 39.42 114.407 39.9867 114.701 40.48C114.994 40.9733 115.407 41.3533 115.941 41.62C116.474 41.8867 117.087 42.02 117.781 42.02C118.381 42.02 118.921 41.9267 119.401 41.74C119.881 41.5533 120.307 41.26 120.681 40.86L122.021 42.4C121.541 42.96 120.934 43.3933 120.201 43.7C119.481 43.9933 118.654 44.14 117.721 44.14ZM130.909 44V30H136.669C137.909 30 138.969 30.2 139.849 30.6C140.743 31 141.429 31.5733 141.909 32.32C142.389 33.0667 142.629 33.9533 142.629 34.98C142.629 36.0067 142.389 36.8933 141.909 37.64C141.429 38.3867 140.743 38.96 139.849 39.36C138.969 39.76 137.909 39.96 136.669 39.96H132.349L133.509 38.74V44H130.909ZM133.509 39.02L132.349 37.76H136.549C137.696 37.76 138.556 37.52 139.129 37.04C139.716 36.5467 140.009 35.86 140.009 34.98C140.009 34.0867 139.716 33.4 139.129 32.92C138.556 32.44 137.696 32.2 136.549 32.2H132.349L133.509 30.92V39.02ZM145.181 44V29.16H147.681V44H145.181ZM157.542 44V41.84L157.402 41.38V37.6C157.402 36.8667 157.182 36.3 156.742 35.9C156.302 35.4867 155.636 35.28 154.742 35.28C154.142 35.28 153.549 35.3733 152.962 35.56C152.389 35.7467 151.902 36.0067 151.502 36.34L150.522 34.52C151.096 34.08 151.776 33.7533 152.562 33.54C153.362 33.3133 154.189 33.2 155.042 33.2C156.589 33.2 157.782 33.5733 158.622 34.32C159.476 35.0533 159.902 36.1933 159.902 37.74V44H157.542ZM154.182 44.14C153.382 44.14 152.682 44.0067 152.082 43.74C151.482 43.46 151.016 43.08 150.682 42.6C150.362 42.1067 150.202 41.5533 150.202 40.94C150.202 40.34 150.342 39.8 150.622 39.32C150.916 38.84 151.389 38.46 152.042 38.18C152.696 37.9 153.562 37.76 154.642 37.76H157.742V39.42H154.822C153.969 39.42 153.396 39.56 153.102 39.84C152.809 40.1067 152.662 40.44 152.662 40.84C152.662 41.2933 152.842 41.6533 153.202 41.92C153.562 42.1867 154.062 42.32 154.702 42.32C155.316 42.32 155.862 42.18 156.342 41.9C156.836 41.62 157.189 41.2067 157.402 40.66L157.822 42.16C157.582 42.7867 157.149 43.2733 156.522 43.62C155.909 43.9667 155.129 44.14 154.182 44.14ZM163.795 48.02C163.275 48.02 162.755 47.9333 162.235 47.76C161.715 47.5867 161.282 47.3467 160.935 47.04L161.935 45.2C162.189 45.4267 162.475 45.6067 162.795 45.74C163.115 45.8733 163.442 45.94 163.775 45.94C164.229 45.94 164.595 45.8267 164.875 45.6C165.155 45.3733 165.415 44.9933 165.655 44.46L166.275 43.06L166.475 42.76L170.515 33.32H172.915L167.915 44.86C167.582 45.66 167.209 46.2933 166.795 46.76C166.395 47.2267 165.942 47.5533 165.435 47.74C164.942 47.9267 164.395 48.02 163.795 48.02ZM165.995 44.38L161.175 33.32H163.775L167.695 42.54L165.995 44.38Z" fill="white"/>
<g clip-path="url(#clip0_1975_405)">
<path d="M28.0109 28.8104L14.125 43.3587C14.2809 43.9113 14.5612 44.4209 14.9443 44.8487C15.3273 45.2764 15.8032 45.6108 16.3353 45.8265C16.8675 46.0421 17.4419 46.1333 18.0147 46.0929C18.5875 46.0525 19.1434 45.8817 19.6401 45.5935L35.2643 36.695L28.0109 28.8104Z" fill="#EA4335"/>
<path d="M42.0511 26.3375L35.2947 22.4675L27.6895 29.1414L35.3256 36.6742L42.0306 32.8457C42.6246 32.5346 43.1221 32.067 43.4693 31.4933C43.8164 30.9197 43.9999 30.262 43.9999 29.5915C43.9999 28.921 43.8164 28.2634 43.4693 27.6897C43.1221 27.1161 42.6246 26.6484 42.0306 26.3374H42.0514L42.0511 26.3375Z" fill="#FBBC04"/>
<path d="M14.1243 15.7524C14.0403 16.0627 13.9985 16.3829 14 16.7044V42.4067C14.0009 42.7281 14.0427 43.048 14.1243 43.3588L28.4862 29.1831L14.1243 15.7524Z" fill="#4285F4"/>
<path d="M28.1144 29.5556L35.2954 22.4677L19.6919 13.5277C19.1048 13.1839 18.4371 13.0018 17.7568 13C16.0684 12.9967 14.5841 14.1173 14.125 15.7421L28.1144 29.5556Z" fill="#34A853"/>
</g>
<defs>
<clipPath id="clip0_1975_405">
<rect width="30" height="33.1641" fill="white" transform="translate(14 13)"/>
</clipPath>
</defs>
</svg>
