<svg width="30" height="31" viewBox="0 0 30 31" fill="none" xmlns="http://www.w3.org/2000/svg">
<g clip-path="url(#clip0_1464_262)">
<path d="M29.299 15.7807C29.299 14.5516 29.1993 13.6547 28.9834 12.7246H14.9485V18.2721H23.1867C23.0207 19.6507 22.1238 21.7269 20.1306 23.122L20.1026 23.3077L24.5402 26.7455L24.8477 26.7762C27.6712 24.1685 29.299 20.3317 29.299 15.7807Z" fill="#4285F4"/>
<path d="M14.9485 30.3968C18.9845 30.3968 22.3728 29.068 24.8477 26.7759L20.1306 23.1218C18.8683 24.0021 17.1741 24.6166 14.9485 24.6166C10.9955 24.6166 7.6404 22.009 6.44441 18.4048L6.2691 18.4197L1.65483 21.9907L1.59448 22.1584C4.05265 27.0416 9.10192 30.3968 14.9485 30.3968Z" fill="#34A853"/>
<path d="M6.44439 18.405C6.12882 17.4749 5.94618 16.4782 5.94618 15.4485C5.94618 14.4187 6.12882 13.4221 6.42779 12.492L6.41943 12.2939L1.74733 8.66553L1.59447 8.73824C0.581336 10.7646 0 13.0401 0 15.4485C0 17.8569 0.581336 20.1323 1.59447 22.1587L6.44439 18.405Z" fill="#FBBC05"/>
<path d="M14.9485 6.28004C17.7554 6.28004 19.6489 7.49252 20.7285 8.50576L24.9473 4.3866C22.3563 1.97824 18.9845 0.5 14.9485 0.5C9.10192 0.5 4.05265 3.85508 1.59448 8.73821L6.4278 12.492C7.6404 8.88775 10.9955 6.28004 14.9485 6.28004Z" fill="#EB4335"/>
</g>
<defs>
<clipPath id="clip0_1464_262">
<rect width="29.313" height="30" fill="white" transform="translate(0 0.5)"/>
</clipPath>
</defs>
</svg>
