<svg xmlns="http://www.w3.org/2000/svg" width="30" height="30" viewBox="0 0 30 30" fill="none">
  <path d="M27.5 27.5H2.5M2.5 13.75L12.6575 5.625C13.3224 5.09311 14.1485 4.80334 15 4.80334C15.8515 4.80334 16.6776 5.09311 17.3425 5.625L27.5 13.75M19.375 6.875V4.375C19.375 4.20924 19.4408 4.05027 19.5581 3.93306C19.6753 3.81585 19.8342 3.75 20 3.75H23.125C23.2908 3.75 23.4497 3.81585 23.5669 3.93306C23.6842 4.05027 23.75 4.20924 23.75 4.375V10.625M5 27.5V11.875M25 27.5V11.875" stroke="#808080" stroke-width="1.5" stroke-linecap="round"/>
  <path d="M18.75 27.5V21.25C18.75 19.4825 18.75 18.5987 18.2 18.05C17.6525 17.5 16.7687 17.5 15 17.5C13.2325 17.5 12.3487 17.5 11.8 18.05C11.25 18.5975 11.25 19.4813 11.25 21.25V27.5M17.5 11.875C17.5 12.538 17.2366 13.1739 16.7678 13.6428C16.2989 14.1116 15.663 14.375 15 14.375C14.337 14.375 13.7011 14.1116 13.2322 13.6428C12.7634 13.1739 12.5 12.538 12.5 11.875C12.5 11.212 12.7634 10.5761 13.2322 10.1072C13.7011 9.63839 14.337 9.375 15 9.375C15.663 9.375 16.2989 9.63839 16.7678 10.1072C17.2366 10.5761 17.5 11.212 17.5 11.875Z" stroke="#808080" stroke-width="1.5"/>
</svg>
