<svg xmlns="http://www.w3.org/2000/svg" width="17" height="17" viewBox="0 0 17 17" fill="none">
  <path d="M8.67547 9.66013C8.94243 9.66013 9.20678 9.60755 9.45342 9.50539C9.70006 9.40323 9.92416 9.25349 10.1129 9.06472C10.3017 8.87594 10.4514 8.65184 10.5536 8.4052C10.6558 8.15856 10.7084 7.89421 10.7084 7.62725C10.7084 7.36029 10.6558 7.09594 10.5536 6.8493C10.4514 6.60265 10.3017 6.37855 10.1129 6.18978C9.92416 6.00101 9.70006 5.85127 9.45342 5.7491C9.20678 5.64694 8.94243 5.59436 8.67547 5.59436C8.13631 5.59436 7.61924 5.80854 7.238 6.18978C6.85676 6.57102 6.64258 7.08809 6.64258 7.62725C6.64258 8.1664 6.85676 8.68348 7.238 9.06472C7.61924 9.44596 8.13631 9.66013 8.67547 9.66013Z" stroke="#808080" stroke-width="1.17282"/>
  <path d="M3.21481 6.44144C4.4984 0.798871 12.858 0.805387 14.1351 6.44795C14.8844 9.75791 12.8254 12.5596 11.0206 14.2928C10.3899 14.9011 9.54788 15.241 8.67168 15.241C7.79548 15.241 6.95345 14.9011 6.32278 14.2928C4.52446 12.5596 2.46551 9.75139 3.21481 6.44144Z" stroke="#808080" stroke-width="1.17282"/>
</svg>
