<svg xmlns="http://www.w3.org/2000/svg" width="40" height="40" viewBox="0 0 40 40" fill="none">
  <path d="M6.66732 33.3333C5.75065 33.3333 4.96621 33.0072 4.31398 32.355C3.66065 31.7016 3.33398 30.9166 3.33398 30V9.99996C3.33398 9.08329 3.66065 8.29885 4.31398 7.64663C4.96621 6.99329 5.75065 6.66663 6.66732 6.66663H33.334C34.2507 6.66663 35.0357 6.99329 35.689 7.64663C36.3412 8.29885 36.6673 9.08329 36.6673 9.99996V30C36.6673 30.9166 36.3412 31.7016 35.689 32.355C35.0357 33.0072 34.2507 33.3333 33.334 33.3333H6.66732ZM20.0007 21.375C20.1395 21.375 20.2851 21.3538 20.4373 21.3116C20.5907 21.2705 20.7368 21.2083 20.8757 21.125L32.6673 13.75C32.8895 13.6111 33.0562 13.4377 33.1673 13.23C33.2784 13.0211 33.334 12.7916 33.334 12.5416C33.334 11.9861 33.0979 11.5694 32.6257 11.2916C32.1534 11.0138 31.6673 11.0277 31.1673 11.3333L20.0007 18.3333L8.83398 11.3333C8.33398 11.0277 7.84787 11.0205 7.37565 11.3116C6.90343 11.6038 6.66732 12.0138 6.66732 12.5416C6.66732 12.8194 6.72287 13.0622 6.83398 13.27C6.9451 13.4788 7.11176 13.6388 7.33398 13.75L19.1257 21.125C19.2645 21.2083 19.4107 21.2705 19.564 21.3116C19.7162 21.3538 19.8618 21.375 20.0007 21.375Z" fill="#808080"/>
</svg>
