<svg xmlns="http://www.w3.org/2000/svg" width="40" height="40" viewBox="0 0 40 40" fill="none">
  <path d="M20.0007 19.1667C18.8956 19.1667 17.8358 18.7277 17.0544 17.9463C16.273 17.1649 15.834 16.1051 15.834 15C15.834 13.895 16.273 12.8352 17.0544 12.0538C17.8358 11.2724 18.8956 10.8334 20.0007 10.8334C21.1057 10.8334 22.1655 11.2724 22.9469 12.0538C23.7283 12.8352 24.1673 13.895 24.1673 15C24.1673 15.5472 24.0595 16.089 23.8502 16.5946C23.6408 17.1001 23.3338 17.5594 22.9469 17.9463C22.56 18.3332 22.1007 18.6401 21.5952 18.8495C21.0896 19.0589 20.5478 19.1667 20.0007 19.1667ZM20.0007 3.33337C16.9065 3.33337 13.939 4.56254 11.7511 6.75046C9.56315 8.93839 8.33398 11.9058 8.33398 15C8.33398 23.75 20.0007 36.6667 20.0007 36.6667C20.0007 36.6667 31.6673 23.75 31.6673 15C31.6673 11.9058 30.4382 8.93839 28.2502 6.75046C26.0623 4.56254 23.0948 3.33337 20.0007 3.33337Z" fill="#808080"/>
</svg>
