<svg xmlns="http://www.w3.org/2000/svg" width="30" height="30" viewBox="0 0 30 30" fill="none">
  <path d="M6.875 8.75C6.875 7.9212 7.20424 7.12634 7.79029 6.54029C8.37634 5.95424 9.1712 5.625 10 5.625C10.8288 5.625 11.6237 5.95424 12.2097 6.54029C12.7958 7.12634 13.125 7.9212 13.125 8.75C13.125 9.5788 12.7958 10.3737 12.2097 10.9597C11.6237 11.5458 10.8288 11.875 10 11.875C9.1712 11.875 8.37634 11.5458 7.79029 10.9597C7.20424 10.3737 6.875 9.5788 6.875 8.75ZM10 3.75C8.67392 3.75 7.40215 4.27678 6.46447 5.21447C5.52678 6.15215 5 7.42392 5 8.75C5 10.0761 5.52678 11.3479 6.46447 12.2855C7.40215 13.2232 8.67392 13.75 10 13.75C11.3261 13.75 12.5979 13.2232 13.5355 12.2855C14.4732 11.3479 15 10.0761 15 8.75C15 7.42392 14.4732 6.15215 13.5355 5.21447C12.5979 4.27678 11.3261 3.75 10 3.75ZM19.375 10C19.375 9.50272 19.5725 9.02581 19.9242 8.67417C20.2758 8.32254 20.7527 8.125 21.25 8.125C21.7473 8.125 22.2242 8.32254 22.5758 8.67417C22.9275 9.02581 23.125 9.50272 23.125 10C23.125 10.4973 22.9275 10.9742 22.5758 11.3258C22.2242 11.6775 21.7473 11.875 21.25 11.875C20.7527 11.875 20.2758 11.6775 19.9242 11.3258C19.5725 10.9742 19.375 10.4973 19.375 10ZM21.25 6.25C20.2554 6.25 19.3016 6.64509 18.5983 7.34835C17.8951 8.05161 17.5 9.00544 17.5 10C17.5 10.9946 17.8951 11.9484 18.5983 12.6517C19.3016 13.3549 20.2554 13.75 21.25 13.75C22.2446 13.75 23.1984 13.3549 23.9017 12.6517C24.6049 11.9484 25 10.9946 25 10C25 9.00544 24.6049 8.05161 23.9017 7.34835C23.1984 6.64509 22.2446 6.25 21.25 6.25ZM5.3125 16.25C4.56658 16.25 3.85121 16.5463 3.32376 17.0738C2.79632 17.6012 2.5 18.3166 2.5 19.0625V19.41C2.50147 19.4969 2.50731 19.5837 2.5175 19.67C2.62072 20.6001 2.95504 21.4896 3.49 22.2575C4.5125 23.7175 6.465 25 10 25C11.7113 25 13.0513 24.7 14.095 24.225C13.9051 23.5952 13.7926 22.9445 13.76 22.2875C12.9538 22.7625 11.7662 23.125 10 23.125C6.9725 23.125 5.6425 22.0625 5.025 21.1812C4.67468 20.6764 4.45441 20.0929 4.38375 19.4825C4.37998 19.4497 4.37706 19.4167 4.375 19.3837V19.0625C4.375 18.8139 4.47377 18.5754 4.64959 18.3996C4.8254 18.2238 5.06386 18.125 5.3125 18.125H14.665C14.9763 17.5288 15.3587 16.9762 15.8012 16.4787C15.4495 16.3272 15.0705 16.2494 14.6875 16.25H5.3125ZM28.75 21.875C28.75 20.0516 28.0257 18.303 26.7364 17.0136C25.447 15.7243 23.6984 15 21.875 15C20.0516 15 18.303 15.7243 17.0136 17.0136C15.7243 18.303 15 20.0516 15 21.875C15 23.6984 15.7243 25.447 17.0136 26.7364C18.303 28.0257 20.0516 28.75 21.875 28.75C23.6984 28.75 25.447 28.0257 26.7364 26.7364C28.0257 25.447 28.75 23.6984 28.75 21.875ZM22.5 22.5L22.5012 25.6287C22.5012 25.7945 22.4354 25.9535 22.3182 26.0707C22.201 26.1879 22.042 26.2537 21.8762 26.2537C21.7105 26.2537 21.5515 26.1879 21.4343 26.0707C21.3171 25.9535 21.2512 25.7945 21.2512 25.6287V22.5H18.12C17.9542 22.5 17.7953 22.4342 17.6781 22.3169C17.5608 22.1997 17.495 22.0408 17.495 21.875C17.495 21.7092 17.5608 21.5503 17.6781 21.4331C17.7953 21.3158 17.9542 21.25 18.12 21.25H21.25V18.125C21.25 17.9592 21.3158 17.8003 21.4331 17.6831C21.5503 17.5658 21.7092 17.5 21.875 17.5C22.0408 17.5 22.1997 17.5658 22.3169 17.6831C22.4342 17.8003 22.5 17.9592 22.5 18.125V21.25H25.6213C25.787 21.25 25.946 21.3158 26.0632 21.4331C26.1804 21.5503 26.2463 21.7092 26.2463 21.875C26.2463 22.0408 26.1804 22.1997 26.0632 22.3169C25.946 22.4342 25.787 22.5 25.6213 22.5H22.5Z" fill="#808080"/>
</svg>
