<svg width="60" height="60" viewBox="0 0 60 60" fill="none" xmlns="http://www.w3.org/2000/svg">
<circle cx="30" cy="30" r="30" fill="#008000"/>
<path d="M20 36.5C20 35.1739 20.5268 33.9021 21.4645 32.9645C22.4021 32.0268 23.6739 31.5 25 31.5H35C36.3261 31.5 37.5979 32.0268 38.5355 32.9645C39.4732 33.9021 40 35.1739 40 36.5C40 37.163 39.7366 37.7989 39.2678 38.2678C38.7989 38.7366 38.163 39 37.5 39H22.5C21.837 39 21.2011 38.7366 20.7322 38.2678C20.2634 37.7989 20 37.163 20 36.5Z" stroke="white" stroke-width="2" stroke-linejoin="round"/>
<path d="M30 26.5C32.0711 26.5 33.75 24.8211 33.75 22.75C33.75 20.6789 32.0711 19 30 19C27.9289 19 26.25 20.6789 26.25 22.75C26.25 24.8211 27.9289 26.5 30 26.5Z" stroke="white" stroke-width="2"/>
</svg>
