<svg width="70" height="70" viewBox="0 0 70 70" fill="none" xmlns="http://www.w3.org/2000/svg">
<circle cx="35" cy="35" r="35" fill="#008000" fill-opacity="0.2"/>
<path d="M42.2375 48.4225H27.7625C24.3375 48.4225 21.5625 45.635 21.5625 42.21V32.9475C21.5625 31.2475 22.6125 29.11 23.9625 28.06L30.7 22.81C32.725 21.235 35.9625 21.16 38.0625 22.635L45.7875 28.0475C47.275 29.085 48.4375 31.31 48.4375 33.1225V42.2225C48.4375 45.635 45.6625 48.4225 42.2375 48.4225ZM31.85 24.285L25.1125 29.535C24.225 30.235 23.4375 31.8225 23.4375 32.9475V42.21C23.4375 43.3582 23.8928 44.4596 24.7035 45.2727C25.5142 46.0858 26.6143 46.5442 27.7625 46.5475H42.2375C44.625 46.5475 46.5625 44.61 46.5625 42.2225V33.1225C46.5625 31.9225 45.7 30.26 44.7125 29.585L36.9875 24.1725C35.5625 23.1725 33.2125 23.2225 31.85 24.285Z" fill="#008000"/>
<path d="M29.3741 41.5637C29.1366 41.5637 28.8991 41.4762 28.7116 41.2887C28.5372 41.1123 28.4395 40.8743 28.4395 40.6262C28.4395 40.3782 28.5372 40.1402 28.7116 39.9637L32.7116 35.9637C32.8083 35.8645 32.926 35.7882 33.0561 35.7404C33.1862 35.6927 33.3253 35.6748 33.4633 35.688C33.6012 35.7012 33.7345 35.7452 33.8531 35.8167C33.9718 35.8882 34.073 35.9854 34.1491 36.1012L35.5116 38.1512L39.9491 33.7137C40.3116 33.3512 40.9116 33.3512 41.2741 33.7137C41.6366 34.0762 41.6366 34.6762 41.2741 35.0387L36.0241 40.2887C35.9274 40.388 35.8097 40.4643 35.6796 40.512C35.5495 40.5598 35.4103 40.5777 35.2724 40.5645C35.1344 40.5513 35.0012 40.5073 34.8825 40.4358C34.7638 40.3643 34.6627 40.267 34.5866 40.1512L33.2241 38.1012L30.0366 41.2887C29.8491 41.4762 29.6116 41.5637 29.3741 41.5637Z" fill="#008000"/>
<path d="M40.625 37.8125C40.1125 37.8125 39.6875 37.3875 39.6875 36.875V35.3125H38.125C37.6125 35.3125 37.1875 34.8875 37.1875 34.375C37.1875 33.8625 37.6125 33.4375 38.125 33.4375H40.625C41.1375 33.4375 41.5625 33.8625 41.5625 34.375V36.875C41.5625 37.3875 41.1375 37.8125 40.625 37.8125Z" fill="#008000"/>
</svg>
