<svg width="70" height="70" viewBox="0 0 70 70" fill="none" xmlns="http://www.w3.org/2000/svg">
<circle cx="35" cy="35" r="35" fill="#008000" fill-opacity="0.2"/>
<path d="M30.3963 24.0738L30.3975 24.0763L30.4012 24.08L30.4125 24.0925L30.4513 24.1388C30.485 24.1788 30.5325 24.235 30.5925 24.31C30.7125 24.4575 30.8837 24.6725 31.0913 24.9488C31.5063 25.5013 32.07 26.2975 32.675 27.2838C33.5968 28.7791 34.3753 30.3582 35 32C35.6247 30.3582 36.4032 28.7791 37.325 27.2838C37.93 26.2963 38.4937 25.5013 38.9087 24.9488C39.1157 24.6738 39.3291 24.4038 39.5487 24.1388L39.5875 24.0925L39.5988 24.08L39.6025 24.0763V24.0738C39.7278 23.9295 39.8942 23.8269 40.0794 23.7797C40.2647 23.7325 40.4599 23.7429 40.639 23.8097C40.8181 23.8764 40.9725 23.9962 41.0817 24.1531C41.1909 24.3099 41.2496 24.4964 41.25 24.6875V32.8825C41.6356 32.0754 42.113 31.3154 42.6725 30.6175C43.2625 29.8963 43.8162 29.4488 44.2488 29.1738C44.465 29.0363 44.6487 28.945 44.7887 28.8838C44.866 28.8504 44.9449 28.8207 45.025 28.795L45.0475 28.7875L45.0575 28.785H45.0612L45.0638 28.7838H45.0662C45.2052 28.7459 45.3511 28.7406 45.4924 28.7683C45.6338 28.7959 45.7669 28.8558 45.8814 28.9432C45.9959 29.0306 46.0887 29.1432 46.1526 29.2723C46.2166 29.4014 46.2499 29.5435 46.25 29.6875V42.1875C46.25 43.265 45.822 44.2983 45.0601 45.0602C44.2983 45.822 43.2649 46.25 42.1875 46.25H27.8125C26.7351 46.25 25.7017 45.822 24.9399 45.0602C24.178 44.2983 23.75 43.265 23.75 42.1875V29.6875C23.7499 29.5434 23.7831 29.4012 23.847 29.2719C23.9108 29.1427 24.0036 29.0299 24.1181 28.9423C24.2326 28.8548 24.3658 28.7948 24.5072 28.7671C24.6487 28.7394 24.7947 28.7447 24.9338 28.7825H24.9362L24.9388 28.7838L24.9425 28.785L24.9525 28.7875L24.975 28.795C25.0562 28.819 25.1355 28.8486 25.2125 28.8838C25.3513 28.9463 25.535 29.0375 25.75 29.1738C26.1838 29.4488 26.7375 29.8963 27.3275 30.6175C27.8867 31.3157 28.364 32.0756 28.75 32.8825V24.6875C28.75 24.4964 28.8084 24.3098 28.9174 24.1527C29.0265 23.9957 29.1809 23.8758 29.36 23.809C29.5391 23.7422 29.7344 23.7318 29.9196 23.7791C30.1048 23.8264 30.2711 23.9293 30.3963 24.0738ZM25.625 31.515V42.1875C25.625 43.395 26.605 44.375 27.8125 44.375H42.1875C42.7677 44.375 43.3241 44.1446 43.7343 43.7343C44.1445 43.3241 44.375 42.7677 44.375 42.1875V31.515C44.2884 31.6089 44.2051 31.7056 44.125 31.805C43.1937 32.9413 41.995 35.1263 41.2337 39.2338C41.1905 39.4631 41.0633 39.668 40.877 39.8085C40.6908 39.949 40.4588 40.015 40.2265 39.9935C39.9942 39.9721 39.7782 39.8649 39.6207 39.6927C39.4632 39.5205 39.3756 39.2958 39.375 39.0625V27.55C39.2216 27.7853 39.0715 28.0229 38.925 28.2625C37.7838 30.125 36.5125 32.6788 35.9175 35.5063C35.8733 35.7169 35.758 35.9059 35.5909 36.0415C35.4238 36.1771 35.2152 36.2512 35 36.2512C34.7848 36.2512 34.5762 36.1771 34.4091 36.0415C34.242 35.9059 34.1267 35.7169 34.0825 35.5063C33.4875 32.6788 32.2162 30.125 31.075 28.2625C30.9212 28.0125 30.7712 27.775 30.625 27.55V39.0625C30.6244 39.2958 30.5368 39.5205 30.3793 39.6927C30.2218 39.8649 30.0058 39.9721 29.7735 39.9935C29.5412 40.015 29.3092 39.949 29.1229 39.8085C28.9367 39.668 28.8095 39.4631 28.7663 39.2338C28.005 35.125 26.8062 32.9413 25.875 31.805C25.7941 31.706 25.7115 31.6092 25.625 31.515Z" fill="#008000"/>
</svg>
