<svg width="70" height="70" viewBox="0 0 70 70" fill="none" xmlns="http://www.w3.org/2000/svg">
<circle cx="35" cy="35" r="35" fill="#008000" fill-opacity="0.2"/>
<path d="M34.0343 45.5398C33.9836 45.7426 33.8665 45.9227 33.7018 46.0514C33.537 46.18 33.334 46.25 33.1249 46.25C33.0459 46.2504 32.9672 46.2409 32.8905 46.2219L29.1405 45.2844C29.0361 45.2581 28.937 45.2141 28.8476 45.1543L26.0351 43.2793C25.8282 43.1413 25.6847 42.9268 25.636 42.6829C25.5873 42.4391 25.6375 42.1859 25.7755 41.9791C25.9135 41.7722 26.128 41.6287 26.3718 41.58C26.6157 41.5313 26.8688 41.5815 27.0757 41.7195L29.7522 43.5043L33.3452 44.4031C33.4653 44.4322 33.5784 44.4848 33.678 44.5577C33.7777 44.6307 33.862 44.7226 33.926 44.8282C33.9901 44.9339 34.0326 45.0511 34.0512 45.1732C34.0697 45.2953 34.064 45.4199 34.0343 45.5398ZM49.5839 34.2359C49.507 34.4696 49.3845 34.6857 49.2236 34.8717C49.0627 35.0578 48.8665 35.2101 48.6464 35.3199L45.8714 36.7074L39.4167 43.1633C39.3021 43.2777 39.1599 43.3605 39.0038 43.4037C38.8477 43.4468 38.6831 43.4487 38.5261 43.4094L31.0261 41.5344C30.912 41.5057 30.8043 41.456 30.7085 41.3879L24.2022 36.7426L21.3569 35.3199C20.9122 35.0976 20.574 34.7078 20.4167 34.2362C20.2594 33.7646 20.2957 33.2498 20.5179 32.8051L23.43 26.982C23.6523 26.5373 24.0421 26.1991 24.5137 26.0418C24.9853 25.8844 25.5 25.9208 25.9448 26.143L28.53 27.432L34.7409 25.6578C34.9094 25.6096 35.088 25.6096 35.2565 25.6578L41.4675 27.432L44.0526 26.143C44.4974 25.9208 45.0122 25.8844 45.4838 26.0418C45.9554 26.1991 46.3452 26.5373 46.5675 26.982L49.4796 32.8051C49.5907 33.0248 49.6571 33.2645 49.675 33.5101C49.6929 33.7557 49.6619 34.0024 49.5839 34.2359ZM44.1722 35.7523L40.9835 29.375H37.2546L32.1874 34.2969C33.671 35.2449 35.9972 35.5062 38.0843 33.4027C38.2473 33.2384 38.4653 33.1402 38.6963 33.127C38.9274 33.1138 39.1552 33.1866 39.3358 33.3312L43.3683 36.5621L44.1722 35.7523ZM22.1948 33.643L24.2679 34.6801L27.18 28.857L25.1069 27.8199L22.1948 33.643ZM42.0311 37.8898L38.7839 35.2894C36.494 37.1644 33.5866 37.4117 31.1772 35.8754C30.9402 35.7246 30.7401 35.5225 30.5917 35.2841C30.4433 35.0456 30.3503 34.7768 30.3198 34.4976C30.2892 34.2184 30.3217 33.9358 30.4149 33.6709C30.5082 33.4059 30.6598 33.1653 30.8585 32.9668C30.8613 32.9634 30.8644 32.9602 30.8679 32.9574L36.1249 27.8586L34.9999 27.5375L29.0913 29.2262L25.8839 35.6398L31.6495 39.759L38.4628 41.4617L42.0311 37.8898ZM47.8015 33.643L44.8929 27.8199L42.8198 28.857L45.7319 34.6801L47.8015 33.643Z" fill="#008000"/>
</svg>
