<svg xmlns="http://www.w3.org/2000/svg" width="17" height="17" viewBox="0 0 17 17" fill="none">
  <path d="M3.57252 10.7176L6.52411 13.6692C7.10793 14.2513 7.89872 14.5782 8.72315 14.5782C9.54758 14.5782 10.3384 14.2513 10.9222 13.6692L13.7826 10.8088C14.3647 10.225 14.6915 9.43422 14.6915 8.60979C14.6915 7.78536 14.3647 6.99457 13.7826 6.41075L10.8245 3.46567C10.5186 3.15898 10.1518 2.9199 9.74775 2.76389C9.3437 2.60788 8.9114 2.53842 8.47881 2.55999L5.22098 2.71637C3.91785 2.77501 2.88186 3.811 2.8167 5.10762L2.66033 8.36545C2.62123 9.24507 2.95353 10.0986 3.57252 10.7176Z" stroke="#808080" stroke-width="1.17282" stroke-linecap="round" stroke-linejoin="round"/>
  <path d="M7.04493 8.5674C7.47695 8.5674 7.89127 8.39578 8.19675 8.0903C8.50223 7.78482 8.67385 7.3705 8.67385 6.93849C8.67385 6.50647 8.50223 6.09215 8.19675 5.78667C7.89127 5.48119 7.47695 5.30957 7.04493 5.30957C6.61292 5.30957 6.1986 5.48119 5.89311 5.78667C5.58763 6.09215 5.41602 6.50647 5.41602 6.93849C5.41602 7.3705 5.58763 7.78482 5.89311 8.0903C6.1986 8.39578 6.61292 8.5674 7.04493 8.5674Z" stroke="#808080" stroke-width="1.17282" stroke-linecap="round"/>
</svg>
