<svg width="70" height="70" viewBox="0 0 70 70" fill="none" xmlns="http://www.w3.org/2000/svg">
<circle cx="35" cy="35" r="35" fill="#008000" fill-opacity="0.2"/>
<path d="M46.25 25C45.5 25 41.75 26.875 35 26.875C28.375 26.875 24.375 25 23.75 25C23.125 25 22.5 25.5 22.5 26.25V43.75C22.5 44.5 23.125 45 23.75 45C24.5 45 28.125 43.125 35 43.125C41.75 43.125 45.5 45 46.25 45C46.875 45 47.5 44.5 47.5 43.75V26.25C47.5 25.5 46.875 25 46.25 25ZM45 42C42.5 41.25 39.25 40.625 35 40.625C30.75 40.625 27.5 41.25 25 42V28C28.25 28.875 31.625 29.375 35 29.375C39.25 29.375 42.5 28.75 45 28V42ZM31.5 33.75L26.875 39.25C29.375 38.875 32.125 38.75 35 38.75C37.875 38.75 40.625 38.875 43.125 39.25L37.5 32.5L34 36.75L31.5 33.75Z" fill="#008000"/>
</svg>
