<svg width="70" height="70" viewBox="0 0 70 70" fill="none" xmlns="http://www.w3.org/2000/svg">
<circle cx="35" cy="35" r="35" fill="#008000" fill-opacity="0.2"/>
<path d="M35 40C32.5625 40 32.375 41.25 30.825 41.25C29.3375 41.25 29.05 40 26.6625 40C24.225 40 24.05 41.25 22.5 41.25V43.75C24.875 43.75 25.2125 42.5 26.6875 42.5C28.175 42.5 28.4625 43.75 30.85 43.75C33.2875 43.75 33.45 42.5 35 42.5C36.55 42.5 36.7125 43.75 39.15 43.75C41.5375 43.75 41.825 42.5 43.3125 42.5C44.7875 42.5 45.125 43.75 47.5 43.75V41.25C45.95 41.25 45.775 40 43.3375 40C40.95 40 40.6625 41.25 39.175 41.25C37.625 41.25 37.4375 40 35 40ZM45.425 34.175L43.7125 35.8875C43.475 36.1125 43.15 36.25 42.825 36.25H41.25V32.0625L42.9 33.275L44.375 31.25L35 24.375L25.625 31.25L27.1 33.2625L28.75 32.0625V36.25H27.175C26.8375 36.25 26.525 36.1125 26.2875 35.8875L24.575 34.175L22.8125 35.9375L24.525 37.65C25.225 38.35 26.1875 38.75 27.175 38.75H42.8125C43.8125 38.75 44.7625 38.35 45.4625 37.65L47.175 35.9375L45.425 34.175ZM36.25 36.25V33.75H33.75V36.25H31.25V30.225L35 27.475L38.75 30.225V36.25H36.25Z" fill="#008000"/>
</svg>
